ffmpeg started on 2025-06-06 at 20:41:54
Report written to "D:\Convert\FFMetrics\reports\psnr_report-6.txt"
Log level: 32
Command line:
ffmpeg -hide_banner -nostdin -i "G:\\\xc0\xed\xe8\xec\xe5\\\xce\xed\xe3\xee\xe8\xed\xe3\xe8\\!_36_\xce\xf1\xe5\xed\xfc_2024\\DreamCast\\\xd2\xe5\xf2\xf0\xe0\xe4\xfc \xe4\xf0\xf3\xe6\xe1\xfb \xcd\xe0\xf6\xf3\xec\xfd [\xd2\xc2-7]\\[DC] Natsume Yuujinchou Shichi - 07_Telegram_HEVC.mkv" -i "G:\\\xc0\xed\xe8\xec\xe5\\\xce\xed\xe3\xee\xe8\xed\xe3\xe8\\!_36_\xce\xf1\xe5\xed\xfc_2024\\DreamCast\\\xd2\xe5\xf2\xf0\xe0\xe4\xfc \xe4\xf0\xf3\xe6\xe1\xfb \xcd\xe0\xf6\xf3\xec\xfd [\xd2\xc2-7]\\[DC] Natsume Yuujinchou Shichi - 07_Telegram.mp4" -lavfi "[0:v]settb=AVTB,setpts=PTS-STARTPTS,format=pix_fmts=yuv420p10,fps=24000/1001,scale=1920:1080:flags=bicubic[main];[1:v]settb=AVTB,setpts=PTS-STARTPTS,format=pix_fmts=yuv420p,fps=24000/1001,scale=1920:1080:flags=bicubic[ref];[main][ref]psnr=eof_action=endall:stats_file='D\\:/Convert/FFMetrics/logs/psnr_logfile-6.txt'" -f null -
Input #0, matroska,webm, from 'G:\Аниме\Онгоинги\!_36_Осень_2024\DreamCast\Тетрадь дружбы Нацумэ [ТВ-7]\[DC] Natsume Yuujinchou Shichi - 07_Telegram_HEVC.mkv':
  Metadata:
    COMPATIBLE_BRANDS: isomiso2avc1mp41
    MAJOR_BRAND     : isom
    MINOR_VERSION   : 512
    ENCODER         : Lavf61.7.100
  Duration: 00:23:56.72, start: -0.021000, bitrate: 805 kb/s
  Stream #0:0: Video: hevc (Main 10), yuv420p10le(tv, bt709, progressive), 1920x1080 [SAR 1:1 DAR 16:9], 23.98 fps, 23.98 tbr, 1k tbn (default)
      Metadata:
        HANDLER_NAME    : VideoHandler
        VENDOR_ID       : [0][0][0][0]
        ENCODER         : Lavc61.19.100 libx265
        BPS             : 607659
        DURATION        : 00:23:56.559708333
        NUMBER_OF_FRAMES: 34443
        NUMBER_OF_BYTES : 109117308
        _STATISTICS_WRITING_APP: mkvpropedit v66.0.0 ('Josie') 64-bit
        _STATISTICS_WRITING_DATE_UTC: 2025-06-04 15:21:05
        _STATISTICS_TAGS: BPS DURATION NUMBER_OF_FRAMES NUMBER_OF_BYTES
  Stream #0:1: Audio: aac (LC), 48000 Hz, stereo, fltp (default)
      Metadata:
        HANDLER_NAME    : SoundHandler
        VENDOR_ID       : [0][0][0][0]
        ENCODER         : Lavc61.19.100 aac
        BPS             : 193612
        DURATION        : 00:23:56.714000000
        NUMBER_OF_FRAMES: 67347
        NUMBER_OF_BYTES : 34770802
        _STATISTICS_WRITING_APP: mkvpropedit v66.0.0 ('Josie') 64-bit
        _STATISTICS_WRITING_DATE_UTC: 2025-06-04 15:21:05
        _STATISTICS_TAGS: BPS DURATION NUMBER_OF_FRAMES NUMBER_OF_BYTES
Input #1, mov,mp4,m4a,3gp,3g2,mj2, from 'G:\Аниме\Онгоинги\!_36_Осень_2024\DreamCast\Тетрадь дружбы Нацумэ [ТВ-7]\[DC] Natsume Yuujinchou Shichi - 07_Telegram.mp4':
  Metadata:
    major_brand     : isom
    minor_version   : 512
    compatible_brands: isomiso2avc1mp41
    encoder         : Lavf61.1.100
  Duration: 00:23:56.68, start: 0.000000, bitrate: 3383 kb/s
  Stream #1:0[0x1](und): Video: h264 (High) (avc1 / 0x31637661), yuv420p(tv, bt709, progressive), 1920x1080 [SAR 1:1 DAR 16:9], 3236 kb/s, 23.98 fps, 23.98 tbr, 24k tbn (default)
      Metadata:
        handler_name    : VideoHandler
        vendor_id       : [0][0][0][0]
        encoder         : Lavc61.3.100 h264_qsv
  Stream #1:1[0x2](und): Audio: aac (HE-AACv2) (mp4a / 0x6134706D), 48000 Hz, stereo, fltp, 144 kb/s (default)
      Metadata:
        handler_name    : SoundHandler
        vendor_id       : [0][0][0][0]
Stream mapping:
  Stream #0:0 (hevc) -> settb:default
  Stream #1:0 (h264) -> settb:default
  psnr:default -> Stream #0:0 (wrapped_avframe)
  Stream #0:1 -> #0:1 (aac (native) -> pcm_s16le (native))
Output #0, null, to 'pipe:':
  Metadata:
    COMPATIBLE_BRANDS: isomiso2avc1mp41
    MAJOR_BRAND     : isom
    MINOR_VERSION   : 512
    encoder         : Lavf61.7.100
  Stream #0:0: Video: wrapped_avframe, yuv420p10le(tv, bt709, progressive), 1920x1080 [SAR 1:1 DAR 16:9], q=2-31, 200 kb/s, 23.98 fps, 23.98 tbn
      Metadata:
        encoder         : Lavc61.19.100 wrapped_avframe
  Stream #0:1: Audio: pcm_s16le, 48000 Hz, stereo, s16, 1536 kb/s (default)
      Metadata:
        HANDLER_NAME    : SoundHandler
        VENDOR_ID       : [0][0][0][0]
        _STATISTICS_TAGS: BPS DURATION NUMBER_OF_FRAMES NUMBER_OF_BYTES
        BPS             : 193612
        DURATION        : 00:23:56.714000000
        NUMBER_OF_FRAMES: 67347
        NUMBER_OF_BYTES : 34770802
        _STATISTICS_WRITING_APP: mkvpropedit v66.0.0 ('Josie') 64-bit
        _STATISTICS_WRITING_DATE_UTC: 2025-06-04 15:21:05
        encoder         : Lavc61.19.100 pcm_s16le
frame=  163 fps=0.0 q=-0.0 size=N/A time=00:00:06.79 bitrate=N/A speed=13.5x    frame=  330 fps=322 q=-0.0 size=N/A time=00:00:13.76 bitrate=N/A speed=13.4x    frame=  520 fps=336 q=-0.0 size=N/A time=00:00:21.68 bitrate=N/A speed=  14x    frame=  743 fps=362 q=-0.0 size=N/A time=00:00:30.98 bitrate=N/A speed=15.1x    frame=  930 fps=361 q=-0.0 size=N/A time=00:00:38.78 bitrate=N/A speed=15.1x    frame= 1164 fps=377 q=-0.0 size=N/A time=00:00:48.54 bitrate=N/A speed=15.7x    frame= 1347 fps=373 q=-0.0 size=N/A time=00:00:56.18 bitrate=N/A speed=15.6x    frame= 1566 fps=381 q=-0.0 size=N/A time=00:01:05.31 bitrate=N/A speed=15.9x    frame= 1758 fps=379 q=-0.0 size=N/A time=00:01:13.32 bitrate=N/A speed=15.8x    frame= 1937 fps=376 q=-0.0 size=N/A time=00:01:20.78 bitrate=N/A speed=15.7x    frame= 2145 fps=379 q=-0.0 size=N/A time=00:01:29.46 bitrate=N/A speed=15.8x    frame= 2360 fps=382 q=-0.0 size=N/A time=00:01:38.43 bitrate=N/A speed=15.9x    frame= 2625 fps=392 q=-0.0 size=N/A time=00:01:49.48 bitrate=N/A speed=16.3x    frame= 2895 fps=402 q=-0.0 size=N/A time=00:02:00.74 bitrate=N/A speed=16.7x    frame= 3144 fps=407 q=-0.0 size=N/A time=00:02:11.13 bitrate=N/A speed=  17x    frame= 3411 fps=414 q=-0.0 size=N/A time=00:02:22.26 bitrate=N/A speed=17.3x    frame= 3690 fps=421 q=-0.0 size=N/A time=00:02:33.90 bitrate=N/A speed=17.6x    frame= 3967 fps=428 q=-0.0 size=N/A time=00:02:45.45 bitrate=N/A speed=17.8x    frame= 4248 fps=434 q=-0.0 size=N/A time=00:02:57.17 bitrate=N/A speed=18.1x    frame= 4512 fps=438 q=-0.0 size=N/A time=00:03:08.18 bitrate=N/A speed=18.3x    frame= 4769 fps=441 q=-0.0 size=N/A time=00:03:18.90 bitrate=N/A speed=18.4x    frame= 5052 fps=446 q=-0.0 size=N/A time=00:03:30.71 bitrate=N/A speed=18.6x    frame= 5310 fps=448 q=-0.0 size=N/A time=00:03:41.47 bitrate=N/A speed=18.7x    frame= 5541 fps=448 q=-0.0 size=N/A time=00:03:51.10 bitrate=N/A speed=18.7x    frame= 5791 fps=449 q=-0.0 size=N/A time=00:04:01.53 bitrate=N/A speed=18.7x    frame= 6073 fps=453 q=-0.0 size=N/A time=00:04:13.29 bitrate=N/A speed=18.9x    frame= 6364 fps=457 q=-0.0 size=N/A time=00:04:25.43 bitrate=N/A speed=19.1x    frame= 6648 fps=461 q=-0.0 size=N/A time=00:04:37.27 bitrate=N/A speed=19.2x    frame= 6928 fps=463 q=-0.0 size=N/A time=00:04:48.95 bitrate=N/A speed=19.3x    frame= 7212 fps=466 q=-0.0 size=N/A time=00:05:00.80 bitrate=N/A speed=19.5x    frame= 7489 fps=469 q=-0.0 size=N/A time=00:05:12.35 bitrate=N/A speed=19.5x    frame= 7775 fps=471 q=-0.0 size=N/A time=00:05:24.28 bitrate=N/A speed=19.7x    frame= 8059 fps=474 q=-0.0 size=N/A time=00:05:36.12 bitrate=N/A speed=19.8x    frame= 8299 fps=474 q=-0.0 size=N/A time=00:05:46.13 bitrate=N/A speed=19.8x    frame= 8538 fps=473 q=-0.0 size=N/A time=00:05:56.10 bitrate=N/A speed=19.7x    frame= 8798 fps=474 q=-0.0 size=N/A time=00:06:06.94 bitrate=N/A speed=19.8x    frame= 9072 fps=476 q=-0.0 size=N/A time=00:06:18.37 bitrate=N/A speed=19.8x    frame= 9341 fps=477 q=-0.0 size=N/A time=00:06:29.59 bitrate=N/A speed=19.9x    frame= 9611 fps=478 q=-0.0 size=N/A time=00:06:40.85 bitrate=N/A speed=19.9x    frame= 9867 fps=479 q=-0.0 size=N/A time=00:06:51.53 bitrate=N/A speed=  20x    frame=10125 fps=479 q=-0.0 size=N/A time=00:07:02.29 bitrate=N/A speed=  20x    frame=10416 fps=481 q=-0.0 size=N/A time=00:07:14.43 bitrate=N/A speed=20.1x    frame=10698 fps=483 q=-0.0 size=N/A time=00:07:26.19 bitrate=N/A speed=20.1x    frame=10981 fps=484 q=-0.0 size=N/A time=00:07:37.99 bitrate=N/A speed=20.2x    frame=11258 fps=485 q=-0.0 size=N/A time=00:07:49.55 bitrate=N/A speed=20.2x    frame=11505 fps=485 q=-0.0 size=N/A time=00:07:59.85 bitrate=N/A speed=20.2x    frame=11751 fps=485 q=-0.0 size=N/A time=00:08:10.11 bitrate=N/A speed=20.2x    frame=12007 fps=485 q=-0.0 size=N/A time=00:08:20.79 bitrate=N/A speed=20.2x    frame=12281 fps=486 q=-0.0 size=N/A time=00:08:32.22 bitrate=N/A speed=20.3x    frame=12562 fps=487 q=-0.0 size=N/A time=00:08:43.94 bitrate=N/A speed=20.3x    frame=12847 fps=489 q=-0.0 size=N/A time=00:08:55.82 bitrate=N/A speed=20.4x    frame=13114 fps=489 q=-0.0 size=N/A time=00:09:06.96 bitrate=N/A speed=20.4x    frame=13386 fps=490 q=-0.0 size=N/A time=00:09:18.30 bitrate=N/A speed=20.4x    frame=13627 fps=490 q=-0.0 size=N/A time=00:09:28.35 bitrate=N/A speed=20.4x    frame=13914 fps=491 q=-0.0 size=N/A time=00:09:40.32 bitrate=N/A speed=20.5x    frame=14197 fps=492 q=-0.0 size=N/A time=00:09:52.13 bitrate=N/A speed=20.5x    frame=14478 fps=493 q=-0.0 size=N/A time=00:10:03.85 bitrate=N/A speed=20.6x    frame=14767 fps=494 q=-0.0 size=N/A time=00:10:15.90 bitrate=N/A speed=20.6x    frame=15042 fps=495 q=-0.0 size=N/A time=00:10:27.37 bitrate=N/A speed=20.6x    frame=15315 fps=495 q=-0.0 size=N/A time=00:10:38.76 bitrate=N/A speed=20.6x    frame=15593 fps=496 q=-0.0 size=N/A time=00:10:50.35 bitrate=N/A speed=20.7x    frame=15861 fps=496 q=-0.0 size=N/A time=00:11:01.53 bitrate=N/A speed=20.7x    frame=16123 fps=496 q=-0.0 size=N/A time=00:11:12.46 bitrate=N/A speed=20.7x    frame=16390 fps=497 q=-0.0 size=N/A time=00:11:23.59 bitrate=N/A speed=20.7x    frame=16676 fps=498 q=-0.0 size=N/A time=00:11:35.52 bitrate=N/A speed=20.8x    frame=16939 fps=498 q=-0.0 size=N/A time=00:11:46.49 bitrate=N/A speed=20.8x    frame=17226 fps=499 q=-0.0 size=N/A time=00:11:58.46 bitrate=N/A speed=20.8x    frame=17501 fps=499 q=-0.0 size=N/A time=00:12:09.93 bitrate=N/A speed=20.8x    frame=17765 fps=499 q=-0.0 size=N/A time=00:12:20.94 bitrate=N/A speed=20.8x    frame=18028 fps=500 q=-0.0 size=N/A time=00:12:31.91 bitrate=N/A speed=20.8x    frame=18293 fps=500 q=-0.0 size=N/A time=00:12:42.97 bitrate=N/A speed=20.8x    frame=18560 fps=500 q=-0.0 size=N/A time=00:12:54.10 bitrate=N/A speed=20.9x    frame=18815 fps=500 q=-0.0 size=N/A time=00:13:04.74 bitrate=N/A speed=20.9x    frame=19062 fps=500 q=-0.0 size=N/A time=00:13:15.04 bitrate=N/A speed=20.8x    frame=19343 fps=500 q=-0.0 size=N/A time=00:13:26.76 bitrate=N/A speed=20.9x    frame=19626 fps=501 q=-0.0 size=N/A time=00:13:38.56 bitrate=N/A speed=20.9x    frame=19909 fps=502 q=-0.0 size=N/A time=00:13:50.37 bitrate=N/A speed=20.9x    frame=20185 fps=502 q=-0.0 size=N/A time=00:14:01.88 bitrate=N/A speed=20.9x    frame=20470 fps=503 q=-0.0 size=N/A time=00:14:13.76 bitrate=N/A speed=  21x    frame=20754 fps=503 q=-0.0 size=N/A time=00:14:25.61 bitrate=N/A speed=  21x    frame=21039 fps=504 q=-0.0 size=N/A time=00:14:37.50 bitrate=N/A speed=  21x    frame=21309 fps=504 q=-0.0 size=N/A time=00:14:48.76 bitrate=N/A speed=  21x    frame=21580 fps=504 q=-0.0 size=N/A time=00:15:00.06 bitrate=N/A speed=  21x    frame=21857 fps=505 q=-0.0 size=N/A time=00:15:11.61 bitrate=N/A speed=  21x    frame=22108 fps=504 q=-0.0 size=N/A time=00:15:22.08 bitrate=N/A speed=  21x    frame=22369 fps=505 q=-0.0 size=N/A time=00:15:32.97 bitrate=N/A speed=  21x    frame=22661 fps=505 q=-0.0 size=N/A time=00:15:45.15 bitrate=N/A speed=21.1x    frame=22948 fps=506 q=-0.0 size=N/A time=00:15:57.12 bitrate=N/A speed=21.1x    frame=23217 fps=506 q=-0.0 size=N/A time=00:16:08.34 bitrate=N/A speed=21.1x    frame=23499 fps=506 q=-0.0 size=N/A time=00:16:20.10 bitrate=N/A speed=21.1x    frame=23774 fps=507 q=-0.0 size=N/A time=00:16:31.57 bitrate=N/A speed=21.1x    frame=24040 fps=507 q=-0.0 size=N/A time=00:16:42.66 bitrate=N/A speed=21.1x    frame=24308 fps=507 q=-0.0 size=N/A time=00:16:53.84 bitrate=N/A speed=21.1x    frame=24582 fps=507 q=-0.0 size=N/A time=00:17:05.27 bitrate=N/A speed=21.2x    frame=24855 fps=507 q=-0.0 size=N/A time=00:17:16.66 bitrate=N/A speed=21.2x    frame=25093 fps=507 q=-0.0 size=N/A time=00:17:26.58 bitrate=N/A speed=21.1x    frame=25336 fps=507 q=-0.0 size=N/A time=00:17:36.72 bitrate=N/A speed=21.1x    frame=25616 fps=507 q=-0.0 size=N/A time=00:17:48.40 bitrate=N/A speed=21.1x    frame=25858 fps=507 q=-0.0 size=N/A time=00:17:58.49 bitrate=N/A speed=21.1x    frame=26103 fps=506 q=-0.0 size=N/A time=00:18:08.71 bitrate=N/A speed=21.1x    frame=26372 fps=506 q=-0.0 size=N/A time=00:18:19.93 bitrate=N/A speed=21.1x    frame=26641 fps=507 q=-0.0 size=N/A time=00:18:31.15 bitrate=N/A speed=21.1x    frame=26908 fps=507 q=-0.0 size=N/A time=00:18:42.28 bitrate=N/A speed=21.1x    frame=27169 fps=507 q=-0.0 size=N/A time=00:18:53.17 bitrate=N/A speed=21.1x    frame=27442 fps=507 q=-0.0 size=N/A time=00:19:04.56 bitrate=N/A speed=21.1x    frame=27708 fps=507 q=-0.0 size=N/A time=00:19:15.65 bitrate=N/A speed=21.1x    frame=27966 fps=507 q=-0.0 size=N/A time=00:19:26.41 bitrate=N/A speed=21.1x    frame=28223 fps=507 q=-0.0 size=N/A time=00:19:37.13 bitrate=N/A speed=21.1x    frame=28492 fps=507 q=-0.0 size=N/A time=00:19:48.35 bitrate=N/A speed=21.1x    frame=28774 fps=507 q=-0.0 size=N/A time=00:20:00.11 bitrate=N/A speed=21.2x    frame=29040 fps=507 q=-0.0 size=N/A time=00:20:11.21 bitrate=N/A speed=21.2x    frame=29295 fps=507 q=-0.0 size=N/A time=00:20:21.84 bitrate=N/A speed=21.2x    frame=29558 fps=507 q=-0.0 size=N/A time=00:20:32.81 bitrate=N/A speed=21.2x    frame=29819 fps=507 q=-0.0 size=N/A time=00:20:43.70 bitrate=N/A speed=21.2x    frame=30068 fps=507 q=-0.0 size=N/A time=00:20:54.12 bitrate=N/A speed=21.2x    frame=30337 fps=507 q=-0.0 size=N/A time=00:21:05.30 bitrate=N/A speed=21.2x    frame=30614 fps=508 q=-0.0 size=N/A time=00:21:16.85 bitrate=N/A speed=21.2x    frame=30873 fps=507 q=-0.0 size=N/A time=00:21:27.66 bitrate=N/A speed=21.2x    frame=31122 fps=507 q=-0.0 size=N/A time=00:21:38.04 bitrate=N/A speed=21.2x    frame=31382 fps=507 q=-0.0 size=N/A time=00:21:48.89 bitrate=N/A speed=21.2x    frame=31648 fps=507 q=-0.0 size=N/A time=00:21:59.98 bitrate=N/A speed=21.2x    frame=31916 fps=507 q=-0.0 size=N/A time=00:22:11.16 bitrate=N/A speed=21.2x    frame=32150 fps=507 q=-0.0 size=N/A time=00:22:20.92 bitrate=N/A speed=21.1x    frame=32378 fps=506 q=-0.0 size=N/A time=00:22:30.43 bitrate=N/A speed=21.1x    frame=32609 fps=506 q=-0.0 size=N/A time=00:22:40.06 bitrate=N/A speed=21.1x    frame=32831 fps=505 q=-0.0 size=N/A time=00:22:49.32 bitrate=N/A speed=21.1x    frame=33089 fps=505 q=-0.0 size=N/A time=00:23:00.08 bitrate=N/A speed=21.1x    frame=33331 fps=505 q=-0.0 size=N/A time=00:23:10.18 bitrate=N/A speed=21.1x    frame=33570 fps=505 q=-0.0 size=N/A time=00:23:20.14 bitrate=N/A speed=21.1x    frame=33822 fps=505 q=-0.0 size=N/A time=00:23:30.65 bitrate=N/A speed=  21x    frame=34045 fps=504 q=-0.0 size=N/A time=00:23:39.96 bitrate=N/A speed=  21x    frame=34290 fps=504 q=-0.0 size=N/A time=00:23:50.17 bitrate=N/A speed=  21x    [Parsed_psnr_10 @ 00000227e76d2b40] PSNR y:49.540824 u:50.602957 v:51.183441 average:49.943956 min:41.410273 max:inf
[out#0/null @ 00000227e76846c0] video:14800KiB audio:269388KiB subtitle:0KiB other streams:0KiB global headers:0KiB muxing overhead: unknown
frame=34443 fps=504 q=-0.0 Lsize=N/A time=00:23:56.56 bitrate=N/A speed=  21x    
